<?xml version="1.0" standalone="no"?>
<!DOCTYPE svg PUBLIC "-//W3C//DTD SVG 20010904//EN"
 "http://www.w3.org/TR/2001/REC-SVG-20010904/DTD/svg10.dtd">
<svg version="1.0" xmlns="http://www.w3.org/2000/svg"
 width="1048.000000pt" height="1048.000000pt" viewBox="0 0 1048.000000 1048.000000"
 preserveAspectRatio="xMidYMid meet">
<metadata>
Created by potrace 1.14, written by Peter Selinger 2001-2017
</metadata>
<g transform="translate(0.000000,1048.000000) scale(0.100000,-0.100000)"
fill="#000000" stroke="none">
<path d="M530 7860 l0 -2620 796 -2 795 -3 24 -60 c13 -33 42 -112 64 -175 23
-63 46 -124 51 -135 4 -11 27 -72 50 -135 23 -63 54 -149 69 -190 16 -41 66
-176 111 -300 45 -124 104 -283 130 -355 27 -71 71 -191 98 -265 27 -74 159
-432 292 -795 134 -363 247 -671 252 -685 11 -31 -2 -61 183 410 74 190 140
354 145 365 9 21 214 537 216 545 0 3 4 14 9 25 4 11 43 108 85 215 42 107 81
204 85 215 4 11 9 25 10 30 2 6 12 30 23 55 11 25 39 95 62 155 24 61 48 124
55 140 22 53 61 153 180 455 64 162 122 309 129 325 17 39 41 99 42 105 0 3 6
17 12 33 l12 27 750 0 c412 0 750 -2 750 -4 0 -4 -109 -268 -145 -351 -32 -76
-69 -164 -140 -335 -42 -102 -83 -198 -91 -214 -8 -16 -14 -33 -14 -37 0 -5
-11 -32 -24 -61 -13 -29 -59 -136 -101 -238 -42 -102 -83 -198 -90 -215 -7
-16 -48 -113 -90 -215 -42 -102 -82 -198 -90 -215 -7 -16 -23 -55 -35 -85 -12
-30 -28 -68 -35 -85 -8 -16 -26 -59 -40 -95 -14 -36 -37 -89 -51 -118 -13 -29
-24 -56 -24 -60 0 -5 -8 -26 -19 -48 -10 -21 -58 -133 -105 -249 -48 -115 -93
-223 -101 -240 -7 -16 -24 -57 -38 -90 -13 -33 -88 -211 -165 -395 -77 -184
-174 -418 -217 -520 -42 -102 -83 -198 -90 -215 -7 -16 -77 -183 -155 -370
-137 -327 -153 -366 -184 -438 -8 -17 -23 -54 -34 -82 -11 -27 -41 -98 -66
-158 l-45 -107 2046 0 c1126 0 2044 2 2042 4 -2 2 -40 6 -85 10 -74 5 -296 40
-336 52 -9 3 -26 7 -37 9 -203 45 -469 151 -679 273 -456 261 -811 640 -1052
1121 -70 140 -175 420 -181 483 0 4 -5 22 -10 40 -12 40 -37 167 -45 228 -3
25 -7 47 -9 50 -17 29 -25 448 -11 595 23 248 98 547 192 769 47 110 144 300
155 304 5 2 9 8 9 14 0 18 124 200 209 306 147 184 387 408 561 521 30 20 57
38 60 41 24 26 279 161 390 206 47 20 99 41 115 49 28 12 182 63 215 70 8 2
53 13 100 24 90 21 110 25 205 41 153 25 474 34 648 18 360 -33 754 -161 1067
-345 193 -115 339 -227 521 -400 l46 -44 -2 1408 c-1 774 -5 1417 -7 1428 -3
11 -9 56 -14 100 -4 44 -8 82 -9 85 -1 3 -5 30 -9 60 -30 213 -138 603 -211
765 -8 17 -28 64 -45 105 -76 182 -249 481 -385 665 -218 294 -513 582 -811
790 -431 302 -928 505 -1441 590 -69 11 -90 14 -138 20 -27 3 -66 9 -85 12
-19 4 -1438 9 -3152 10 l-3118 3 0 -2620z"/>
<path d="M7988 3925 c-2 -2 -33 -6 -70 -9 -139 -12 -297 -59 -443 -133 -48
-24 -173 -102 -198 -123 -7 -6 -22 -18 -34 -28 -89 -74 -196 -191 -261 -289
-23 -34 -42 -64 -42 -68 0 -3 507 -3 1128 -1 895 3 1126 6 1124 16 -14 58
-226 301 -318 364 -161 110 -250 157 -387 205 -48 17 -89 30 -92 30 -3 0 -29
4 -58 10 -28 6 -72 13 -97 17 -46 7 -247 14 -252 9z"/>
<path d="M6940 1953 c0 -2 19 -32 42 -66 154 -230 374 -404 634 -502 71 -27
171 -55 217 -61 15 -2 47 -6 70 -10 103 -15 290 -11 402 10 251 47 479 163
670 340 l49 47 91 -90 c49 -49 126 -124 171 -168 73 -70 651 -633 665 -647 3
-3 6 254 6 572 l0 579 -1509 0 c-829 0 -1508 -2 -1508 -4z"/>
</g>
</svg>
